%TF.GenerationSoftware,Altium Limited,Altium Designer,21.8.1 (53)*%
G04 Layer_Physical_Order=2*
G04 Layer_Color=16711680*
%FSLAX44Y44*%
%MOMM*%
%TF.SameCoordinates,5B2EC376-9E82-47C5-9F2C-D2063BE729DA*%
%TF.FilePolarity,Positive*%
%TF.FileFunction,Copper,L2,Bot,Signal*%
%TF.Part,Single*%
G01*
G75*
%TA.AperFunction,Conductor*%
%ADD10C,1.0000*%
%TA.AperFunction,ComponentPad*%
%ADD11C,1.6510*%
G04:AMPARAMS|DCode=12|XSize=1.651mm|YSize=1.651mm|CornerRadius=0mm|HoleSize=0mm|Usage=FLASHONLY|Rotation=0.000|XOffset=0mm|YOffset=0mm|HoleType=Round|Shape=Octagon|*
%AMOCTAGOND12*
4,1,8,0.8255,-0.4128,0.8255,0.4128,0.4128,0.8255,-0.4128,0.8255,-0.8255,0.4128,-0.8255,-0.4128,-0.4128,-0.8255,0.4128,-0.8255,0.8255,-0.4128,0.0*
%
%ADD12OCTAGOND12*%

%ADD13C,1.6500*%
%ADD14R,1.6500X1.6500*%
%ADD15C,3.0000*%
%ADD16R,2.0000X2.0000*%
%ADD17C,2.0000*%
%ADD18C,1.6000*%
%ADD19C,2.1590*%
%ADD20R,1.5200X1.5200*%
%ADD21C,1.5200*%
%ADD22R,2.5000X2.5000*%
%TA.AperFunction,WasherPad*%
%ADD23C,3.0000*%
%TA.AperFunction,ComponentPad*%
%ADD24R,1.6500X1.6500*%
%ADD25R,2.5400X2.0320*%
%ADD26O,2.5400X1.8000*%
%ADD27R,2.0000X2.0000*%
%ADD28R,1.6000X1.6000*%
%ADD29C,1.2000*%
%TA.AperFunction,ViaPad*%
%ADD30C,1.6500*%
D10*
X763270Y396240D02*
X807720Y440690D01*
X554990Y204470D02*
Y300990D01*
X575620Y321620D01*
X719130D01*
X562410Y337620D02*
X705920D01*
X716280Y347980D02*
Y438150D01*
X705920Y337620D02*
X716280Y347980D01*
X678204Y429213D02*
Y447064D01*
X669290Y420299D02*
X678204Y429213D01*
Y447064D02*
X679450Y448310D01*
X669290Y419100D02*
Y420299D01*
X631190Y404638D02*
X643890Y417338D01*
X631190Y356870D02*
Y404638D01*
X643890Y417338D02*
Y419100D01*
X605790Y436388D02*
X615950Y446548D01*
Y448310D01*
X647700Y473710D02*
X648695Y474705D01*
Y495025D01*
X656614Y502944D01*
Y518184D02*
X657860Y519430D01*
X656614Y502944D02*
Y518184D01*
X657860Y519430D02*
X659106Y520676D01*
Y535916D01*
X665247Y542057D02*
X687070D01*
X659106Y535916D02*
X665247Y542057D01*
X616728Y533400D02*
X630698Y519430D01*
X632460D01*
X581660Y533400D02*
X616728D01*
X566420Y467360D02*
X575310Y476250D01*
X528320Y477028D02*
X537988Y467360D01*
X566420D01*
X575310Y476250D02*
Y500380D01*
X699495Y454935D02*
X716280Y438150D01*
X699495Y454935D02*
Y472715D01*
X698500Y473710D02*
X699495Y472715D01*
X673100Y473710D02*
Y505460D01*
X680720Y513080D01*
X687070Y542057D02*
Y571500D01*
X615950Y506730D02*
X622300Y500380D01*
Y473710D02*
Y500380D01*
X581660Y506730D02*
X615950D01*
X575310Y500380D02*
X581660Y506730D01*
X769620Y135890D02*
X1014730D01*
X1042670Y163830D02*
Y208280D01*
X1014730Y135890D02*
X1042670Y163830D01*
X248920Y362736D02*
Y619760D01*
X267970Y638810D02*
X457200D01*
X248920Y619760D02*
X267970Y638810D01*
X763270Y326390D02*
Y396240D01*
X807720Y440690D02*
Y567970D01*
X58420Y511810D02*
X67310D01*
X50800Y519430D02*
X58420Y511810D01*
X50800Y519430D02*
Y548640D01*
X99060Y570230D02*
X115570Y553720D01*
Y532130D02*
Y553720D01*
X80010Y570230D02*
X99060D01*
X50800Y599440D02*
X80010Y570230D01*
X852170Y473710D02*
X1010920D01*
X831850Y361950D02*
Y453390D01*
X852170Y473710D01*
X831850Y361950D02*
X863600Y330200D01*
X1010920Y473710D02*
X1059180Y521970D01*
X639010Y160220D02*
X656590Y177800D01*
X505460Y533400D02*
Y646430D01*
X521840Y662810D01*
X553080D01*
X528320Y477028D02*
Y567690D01*
X1017270Y674370D02*
X1059180Y632460D01*
Y521970D02*
Y632460D01*
X773430Y674370D02*
X1017270D01*
X478790Y702310D02*
X745490D01*
X439290Y662810D02*
X478790Y702310D01*
X158120Y662810D02*
X439290D01*
X745490Y702310D02*
X773430Y674370D01*
X698500Y683260D02*
X778790Y602970D01*
X457200Y638810D02*
X501650Y683260D01*
X698500D01*
X248946Y358114D02*
X250190Y356870D01*
X248920Y362736D02*
X248946Y362710D01*
Y358114D02*
Y362710D01*
X766800Y602970D02*
X778790D01*
X67310Y511810D02*
X148590D01*
X68580Y429260D02*
Y510540D01*
X157480Y488450D02*
Y502920D01*
X148590Y511810D02*
X157480Y502920D01*
Y488450D02*
X158120Y487810D01*
X778790Y602970D02*
X807720D01*
X605790Y356870D02*
Y436388D01*
X743710Y346200D02*
Y410970D01*
X778510Y445770D01*
X719130Y321620D02*
X743710Y346200D01*
X158120Y404490D02*
Y487810D01*
X175260Y387350D02*
X193532D01*
X158120Y404490D02*
X175260Y387350D01*
X199390Y356870D02*
Y381492D01*
X193532Y387350D02*
X199390Y381492D01*
X238215Y141695D02*
Y153125D01*
X245310Y160220D01*
X639010D01*
X237490Y140970D02*
X238215Y141695D01*
X377190Y218932D02*
X383048Y224790D01*
X377190Y204470D02*
Y218932D01*
X383048Y224790D02*
X494030D01*
X98350Y369364D02*
Y419100D01*
Y369364D02*
X102870Y364844D01*
Y363220D02*
Y364844D01*
X67310Y511810D02*
X68580Y510540D01*
X96437Y421013D02*
X98350Y419100D01*
X76827Y421013D02*
X96437D01*
X68580Y429260D02*
X76827Y421013D01*
X128270Y363220D02*
Y364844D01*
X133350Y369924D02*
Y419100D01*
X128270Y364844D02*
X133350Y369924D01*
X134128Y331470D02*
X237490D01*
X128270Y337328D02*
Y363220D01*
Y337328D02*
X134128Y331470D01*
X737870Y300990D02*
X763270Y326390D01*
X637540Y300990D02*
X737870D01*
X680720Y513080D02*
X767080D01*
X778510Y501650D01*
Y445770D02*
Y501650D01*
X877570Y167148D02*
Y208280D01*
X628650Y567970D02*
X681916D01*
X564160D02*
X628650D01*
X528320Y567690D02*
X563600Y602970D01*
X628650D01*
X553080Y487810D02*
Y556890D01*
X564160Y567970D01*
X163830Y64770D02*
X237490D01*
X152400Y76200D02*
Y233680D01*
Y76200D02*
X163830Y64770D01*
X147320Y19050D02*
X295910D01*
X110490Y55880D02*
Y266700D01*
Y55880D02*
X147320Y19050D01*
X156210Y40640D02*
X283702D01*
X132080Y64770D02*
Y252730D01*
Y64770D02*
X156210Y40640D01*
X152400Y233680D02*
X167640Y248920D01*
X172720Y225282D02*
X178578Y231140D01*
X172720Y96028D02*
X178578Y90170D01*
X172720Y96028D02*
Y225282D01*
X178578Y231140D02*
X217688D01*
X178578Y90170D02*
X237490D01*
X167640Y248920D02*
X243942D01*
X147320Y267970D02*
X257810D01*
X132080Y252730D02*
X147320Y267970D01*
X124460Y312420D02*
X269240D01*
X86360Y116840D02*
Y274320D01*
X124460Y312420D01*
X130810Y287020D02*
X292100D01*
X110490Y266700D02*
X130810Y287020D01*
X601199Y285750D02*
X605209Y281740D01*
X599440Y285750D02*
X601199D01*
X605209Y281740D02*
X1000960D01*
X581660Y265430D02*
X980932D01*
X991870Y254492D01*
X1000960Y281740D02*
X1017270Y265430D01*
X594334Y245084D02*
X598930D01*
X600426Y246580D02*
X957380D01*
X598930Y245084D02*
X600426Y246580D01*
X593090Y243840D02*
X594334Y245084D01*
X957380Y246580D02*
X966470Y237490D01*
X404762Y86360D02*
X720090D01*
X769620Y135890D01*
X713740Y110490D02*
X744220Y140970D01*
X353060Y110490D02*
X713740D01*
X744220Y140970D02*
Y161290D01*
X871712D01*
X663546Y227330D02*
X738362D01*
X744220Y221472D01*
Y161290D02*
Y221472D01*
X681990Y204470D02*
X682625Y203835D01*
X206442Y115471D02*
X206492Y115520D01*
X237440D02*
X237490Y115570D01*
X206492Y115520D02*
X237440D01*
X86360Y116840D02*
X88900Y114300D01*
X300990Y295910D02*
Y356870D01*
X326390Y313690D02*
X327660Y312420D01*
X326390Y313690D02*
Y356870D01*
X636270Y227330D02*
X663546D01*
X663878Y226998D01*
X529590Y304800D02*
X562410Y337620D01*
X871712Y161290D02*
X877570Y167148D01*
X801370Y208280D02*
X852170D01*
X553080Y662810D02*
X617350D01*
X628650Y602970D02*
Y651510D01*
X617350Y662810D02*
X628650Y651510D01*
X326390Y189230D02*
Y204470D01*
X336150Y179470D02*
X402590D01*
X326390Y189230D02*
X336150Y179470D01*
X402839Y84437D02*
X404762Y86360D01*
X1017270Y208280D02*
Y265430D01*
X494030Y224790D02*
X506241Y237001D01*
Y286239D01*
X505460Y287020D02*
X506241Y286239D01*
X529590Y204470D02*
Y304800D01*
X300990Y204470D02*
Y261410D01*
X306848Y267268D01*
X471070D01*
X360680Y245110D02*
X474980D01*
X991870Y208280D02*
Y254492D01*
X351790Y236220D02*
X360680Y245110D01*
X656590Y177800D02*
Y204470D01*
X657834Y205714D01*
Y220954D02*
X663878Y226998D01*
X966470Y208280D02*
Y237490D01*
X657834Y205714D02*
Y220954D01*
X292100Y287020D02*
X300990Y295910D01*
X257810Y267970D02*
X275590Y250190D01*
Y204470D02*
Y250190D01*
X351790Y204470D02*
Y236220D01*
X283702Y90170D02*
X289560Y84312D01*
X283702Y40640D02*
X289560Y46498D01*
Y84312D01*
X262890Y90170D02*
X283702D01*
X223546Y205714D02*
Y225282D01*
X217688Y231140D02*
X223546Y225282D01*
X249800Y204860D02*
Y243062D01*
X243942Y248920D02*
X249800Y243062D01*
X223546Y205714D02*
X224790Y204470D01*
X353060Y135890D02*
X666750D01*
X681990Y151130D01*
X330200Y135890D02*
X353060D01*
X681990Y151130D02*
Y204470D01*
X330200Y110490D02*
X353060D01*
X324579Y140970D02*
X329659Y135890D01*
X330200D01*
X262890Y140970D02*
X324579D01*
X262890Y115570D02*
X299720D01*
X309880Y105410D01*
Y33020D02*
Y105410D01*
X295910Y19050D02*
X309880Y33020D01*
X249800Y204860D02*
X250190Y204470D01*
X237490Y64770D02*
X237490Y64770D01*
X580390Y356870D02*
Y424180D01*
X554990Y356870D02*
Y424180D01*
X529590Y356870D02*
Y424180D01*
X504190Y356870D02*
Y424180D01*
X478790Y356870D02*
Y424180D01*
X453390Y356870D02*
Y424180D01*
X427990Y356870D02*
Y424180D01*
X402590Y356870D02*
Y424180D01*
X248946Y355626D02*
X250190Y356870D01*
X248946Y342926D02*
Y355626D01*
X237490Y331470D02*
X248946Y342926D01*
X685446Y571500D02*
X687070D01*
X681916Y567970D02*
X685446Y571500D01*
X871220Y599440D02*
X872368Y600588D01*
X863526Y567970D02*
X869596Y574040D01*
X807720Y567970D02*
X863526D01*
X869596Y574040D02*
X871220D01*
X869596Y599440D02*
X871220D01*
X807720Y602970D02*
X866066D01*
X869596Y599440D01*
X785767Y566057D02*
X805807D01*
X807720Y567970D01*
X775970Y556260D02*
X785767Y566057D01*
X730250Y556260D02*
X775970D01*
X747021Y583191D02*
X766800Y602970D01*
X731781Y583191D02*
X747021D01*
X730250Y581660D02*
X731781Y583191D01*
X728980Y554990D02*
X730250Y556260D01*
X703580Y554990D02*
X728980D01*
X687070Y571500D02*
X703580Y554990D01*
X698854Y607060D02*
X730250D01*
X687070Y596900D02*
X688694D01*
X698854Y607060D01*
X686529Y596900D02*
X687070D01*
X628650Y602970D02*
X680459D01*
X686529Y596900D01*
X121920Y662940D02*
X157990D01*
X158120Y662810D01*
X115570Y656590D02*
X121920Y662940D01*
X115570Y608330D02*
Y656590D01*
D11*
X657860Y519430D02*
D03*
X615950Y448310D02*
D03*
X679450D02*
D03*
X643890Y419100D02*
D03*
D12*
X632460Y519430D02*
D03*
X669290Y419100D02*
D03*
D13*
X1042670Y208280D02*
D03*
X1017270D02*
D03*
X991870D02*
D03*
X966470D02*
D03*
X902970D02*
D03*
X877570D02*
D03*
X262890Y64770D02*
D03*
Y90170D02*
D03*
Y115570D02*
D03*
Y140970D02*
D03*
X237490D02*
D03*
Y115570D02*
D03*
Y90170D02*
D03*
Y64770D02*
D03*
X158120Y487810D02*
D03*
X553080Y662810D02*
D03*
Y487810D02*
D03*
X681990Y356870D02*
D03*
X656590D02*
D03*
X631190D02*
D03*
X605790D02*
D03*
X580390D02*
D03*
X554990D02*
D03*
X529590D02*
D03*
X504190D02*
D03*
X478790D02*
D03*
X453390D02*
D03*
X427990D02*
D03*
X402590D02*
D03*
X377190D02*
D03*
X351790D02*
D03*
X326390D02*
D03*
X300990D02*
D03*
X275590D02*
D03*
X250190D02*
D03*
X224790D02*
D03*
X199390D02*
D03*
X681990Y204470D02*
D03*
X656590D02*
D03*
X631190D02*
D03*
X605790D02*
D03*
X580390D02*
D03*
X554990D02*
D03*
X529590D02*
D03*
X504190D02*
D03*
X478790D02*
D03*
X453390D02*
D03*
X427990D02*
D03*
X402590D02*
D03*
X377190D02*
D03*
X351790D02*
D03*
X326390D02*
D03*
X300990D02*
D03*
X275590D02*
D03*
X250190D02*
D03*
X224790D02*
D03*
X115570Y608330D02*
D03*
D14*
X852170Y208280D02*
D03*
X199390Y204470D02*
D03*
D15*
X1164170Y340780D02*
D03*
Y710780D02*
D03*
X794170D02*
D03*
Y340780D02*
D03*
D16*
X133350Y419100D02*
D03*
D17*
X98350D02*
D03*
X807720Y567970D02*
D03*
X628650D02*
D03*
D18*
X102870Y363220D02*
D03*
X128270D02*
D03*
X687070Y596900D02*
D03*
Y571500D02*
D03*
X871220Y574040D02*
D03*
Y599440D02*
D03*
X554990Y424180D02*
D03*
X529590D02*
D03*
X504190D02*
D03*
X478790D02*
D03*
X453390D02*
D03*
X427990D02*
D03*
X402590D02*
D03*
D19*
X505460Y533400D02*
D03*
X581660D02*
D03*
D20*
X596900Y473710D02*
D03*
D21*
X622300D02*
D03*
X647700D02*
D03*
X673100D02*
D03*
X698500D02*
D03*
X723900D02*
D03*
D22*
X50800Y599440D02*
D03*
Y548640D02*
D03*
D23*
X894080Y311150D02*
D03*
X1079500Y425450D02*
D03*
X894080Y424180D02*
D03*
X283210Y425450D02*
D03*
D24*
X158120Y662810D02*
D03*
X115570Y532130D02*
D03*
D25*
X730250Y556260D02*
D03*
D26*
Y581660D02*
D03*
Y607060D02*
D03*
D27*
X807720Y602970D02*
D03*
X628650D02*
D03*
D28*
X580390Y424180D02*
D03*
D29*
X353060Y135890D02*
D03*
Y110490D02*
D03*
X330200Y135890D02*
D03*
Y110490D02*
D03*
D30*
X599440Y285750D02*
D03*
X637540Y300990D02*
D03*
X581660Y265430D02*
D03*
X593090Y243840D02*
D03*
X863600Y330200D02*
D03*
X206442Y115471D02*
D03*
X88900Y114300D02*
D03*
X269240Y312420D02*
D03*
X327660D02*
D03*
X636270Y227330D02*
D03*
X801370Y208280D02*
D03*
X402590Y179470D02*
D03*
X402839Y84437D02*
D03*
X505460Y287020D02*
D03*
X471070Y267268D02*
D03*
X474980Y245110D02*
D03*
%TF.MD5,f9236844e49de416bbb19b87ed72a809*%
M02*
