M48
;Layer_Color=9474304
;FILE_FORMAT=4:4
METRIC
;TYPE=PLATED
T1F00S00C0.6000
T2F00S00C0.7112
T3F00S00C0.8000
T4F00S00C0.8890
T5F00S00C1.0000
T6F00S00C1.0160
T7F00S00C1.0200
T8F00S00C1.1000
T9F00S00C1.2000
;TYPE=NON_PLATED
T10F00S00C3.0000
%
T01
X00684530Y00488950
X00707390
Y00514350
X00684530
X00482600Y00741680
X00457200
X01041400Y00949960
Y00975360
X01225550Y00977900
Y00952500
T02
X00970280Y00826770
X01033780
T03
X00469900Y00910590
Y00986790
T04
X00859790Y00911860
X00935990
T05
X01206500Y00586740
X01231900
X01257300
X01320800
X01346200
X01371600
X01397000
X01217930Y00708660
X01155700Y00586740
X01036320Y00582930
X01010920
X00985520
X00960120
X00934720
X00909320
X00883920
X00858520
X00833120
X00807720
X00829310Y00623570
X00825400Y00645728
X00859790Y00665480
X00858520Y00735330
X00883920
X00909320
X00934720
X00960120
X00985520
X01010920
X01036320
X00991870Y00679450
X00953770Y00664210
X00935990Y00643890
X00947420Y00622300
X00990600Y00605790
X00833120Y00735330
X00807720
X00782320
X00756920
X00731520
X00706120
X00680720
X00655320
X00629920
X00604520
X00579120
X00553720
X00623570Y00690880
X00681990
X00680720Y00582930
X00706120
X00731520
X00756920
Y00557930
X00782320Y00582930
X00655320
X00629920
X00604520
X00579120
X00553720
X00560772Y00493931
X00591820Y00494030
Y00519430
X00617220
Y00494030
Y00468630
Y00443230
X00591820Y00443230
Y00468630
X00757169Y00462897
X00443230Y00492760
X00452680Y00797560
X00487680
X00512450Y00866270
Y01041270
X00907410
X00982980Y00981430
Y00946430
X01084580Y00934720
Y00960120
Y00985520
X01162050Y00981430
Y00946430
X00907410Y00866270
T06
X00998220Y00797560
X01023620
X01012190Y00897890
X00986790
T07
X00951230Y00852170
X00976630
X01002030
X01027430
X01052830
X01078230
T08
X00756920Y00802640
X00782320
X00807720
X00833120
X00858520
X00883920
X00909320
X00934720
T09
X00405130Y00927100
Y00977900
T10
X01248410Y00689610
X01518500Y00719240
X01148500
X00637540Y00803910
X01148500Y01089240
X01518500
X01433830Y00803910
X01248410Y00802640
M30
